<svg width="36" height="57" viewBox="0 0 36 57" fill="none" xmlns="http://www.w3.org/2000/svg">
<rect x="3" width="30" height="16" rx="3" fill="#63646D"/>
<path d="M0 34.7812C0 30.9153 3.13401 27.7812 7 27.7812H29C32.866 27.7812 36 30.9153 36 34.7812V35.7812H0V34.7812Z" fill="#63646D"/>
<path d="M26 30H28V16H26V30Z" fill="#63646D"/>
<rect width="2" height="14" transform="matrix(1 0 0 -1 8 30)" fill="#63646D"/>
<rect width="2" height="21" transform="matrix(1 0 0 -1 0 56.5625)" fill="#63646D"/>
<rect width="2" height="21" transform="matrix(1 0 0 -1 34 56.5625)" fill="#63646D"/>
<rect width="2" height="10" transform="matrix(1 0 0 -1 27 45.5625)" fill="#63646D"/>
<rect width="2" height="10" transform="matrix(1 0 0 -1 7 45.5625)" fill="#63646D"/>
<rect x="14" y="2.4375" width="8" height="2" rx="1" fill="#F7F7FA"/>
</svg>
