<svg width="40" height="54" viewBox="0 0 40 54" fill="none" xmlns="http://www.w3.org/2000/svg">
<rect x="17.4746" width="22.5254" height="53.9498" rx="6" fill="#63646D"/>
<ellipse cx="28.8763" cy="26.975" rx="6.39611" ry="6.39611" fill="#F7F7FA"/>
<ellipse cx="28.8763" cy="43.3821" rx="6.39611" ry="6.39611" fill="#F7F7FA"/>
<ellipse cx="25.5393" cy="43.3823" rx="1.11237" ry="1.11237" fill="#63646D"/>
<ellipse cx="31.9353" cy="43.3823" rx="1.11237" ry="1.11237" fill="#63646D"/>
<ellipse cx="28.8763" cy="10.5677" rx="6.39611" ry="6.39611" fill="#F7F7FA"/>
<ellipse cx="25.5393" cy="10.5674" rx="1.11237" ry="1.11237" fill="#63646D"/>
<ellipse cx="31.9353" cy="10.5674" rx="1.11237" ry="1.11237" fill="#63646D"/>
<ellipse cx="25.5393" cy="26.9747" rx="1.11237" ry="1.11237" fill="#63646D"/>
<ellipse cx="31.9353" cy="26.9747" rx="1.11237" ry="1.11237" fill="#63646D"/>
<path d="M20.5574 46.2428C17.3889 47.356 10.2299 47.4759 6.94152 39.0495C2.83107 28.5164 17.9884 12.5884 6.94151 7.70725" stroke="#63646D" stroke-width="2"/>
<path d="M9.68357 2.0685C11.4283 4.30324 11.0296 7.53052 8.79286 9.27683C6.55616 11.0231 3.32853 10.6272 1.58375 8.39243C-0.161026 6.15769 1.81739 4.95363 4.0541 3.20733C6.2908 1.46102 7.93879 -0.166246 9.68357 2.0685Z" fill="#63646D"/>
<line x1="1.57556" y1="3.68918" x2="2.47966" y2="4.76664" stroke="#63646D" stroke-width="1.5" stroke-linecap="round"/>
<path d="M5.14323 1.02756L6.31091 2.41914" stroke="#63646D" stroke-width="1.5" stroke-linecap="round"/>
</svg>
