<svg xmlns="http://www.w3.org/2000/svg" width="13" height="13" viewBox="0 0 13 13" fill="none">
  <path d="M6.25 12.5C7.9076 12.5 9.49732 11.8415 10.6694 10.6694C11.8415 9.49732 12.5 7.9076 12.5 6.25C12.5 4.5924 11.8415 3.00269 10.6694 1.83058C9.49732 0.65848 7.9076 0 6.25 0C4.5924 0 3.00269 0.65848 1.83058 1.83058C0.65848 3.00269 0 4.5924 0 6.25C0 7.9076 0.65848 9.49732 1.83058 10.6694C3.00269 11.8415 4.5924 12.5 6.25 12.5ZM5.46875 5.07812C5.46875 5.725 5.11875 6.25 4.6875 6.25C4.25625 6.25 3.90625 5.725 3.90625 5.07812C3.90625 4.43125 4.25625 3.90625 4.6875 3.90625C5.11875 3.90625 5.46875 4.43125 5.46875 5.07812ZM3.34766 7.47422C3.43737 7.42242 3.54399 7.40838 3.64406 7.4352C3.74413 7.46201 3.82945 7.52747 3.88125 7.61719C4.12118 8.03308 4.46645 8.37841 4.88229 8.61843C5.29813 8.85844 5.76986 8.98466 6.25 8.98438C6.73014 8.98466 7.20187 8.85844 7.61771 8.61843C8.03355 8.37841 8.37882 8.03308 8.61875 7.61719C8.64421 7.5724 8.67828 7.5331 8.71899 7.50154C8.75971 7.46997 8.80626 7.44677 8.85598 7.43328C8.9057 7.41978 8.95759 7.41625 9.00868 7.42289C9.05976 7.42953 9.10903 7.44621 9.15364 7.47197C9.19826 7.49773 9.23734 7.53205 9.26863 7.57298C9.29992 7.6139 9.32281 7.66061 9.33598 7.71041C9.34914 7.76022 9.35233 7.81213 9.34535 7.86317C9.33837 7.91421 9.32137 7.96337 9.29531 8.00781C8.98681 8.54246 8.54293 8.98642 8.00833 9.295C7.47372 9.60359 6.86727 9.76591 6.25 9.76562C5.63273 9.76591 5.02628 9.60359 4.49167 9.295C3.95707 8.98642 3.51319 8.54246 3.20469 8.00781C3.15289 7.91809 3.13885 7.81147 3.16566 7.71141C3.19248 7.61134 3.25794 7.52602 3.34766 7.47422ZM7.8125 6.25C7.38125 6.25 7.03125 5.725 7.03125 5.07812C7.03125 4.43125 7.38125 3.90625 7.8125 3.90625C8.24375 3.90625 8.59375 4.43125 8.59375 5.07812C8.59375 5.725 8.24375 6.25 7.8125 6.25Z" fill="#35AA69"/>
</svg>